<svg width="32" height="32" viewBox="0 0 32 32" fill="none" xmlns="http://www.w3.org/2000/svg">
<g clip-path="url(#clip0_3_20)">
<path d="M19.806 2.75C22.6211 2.75 24.8467 3.40141 26.483 4.70424C28.1193 6.00707 28.9374 7.73363 28.9374 9.88393C28.9374 10.4911 28.9022 10.9591 28.8318 11.2879C28.5503 12.907 27.8905 14.3363 26.8525 15.5759C25.8144 16.8155 24.4773 17.7705 22.841 18.4408C21.2048 19.1112 19.4014 19.4464 17.4308 19.4464H14.5806C14.4046 19.4464 14.2815 19.5223 14.2111 19.6741L12.6804 28.7433C12.6452 28.9204 12.5484 29.0595 12.3901 29.1607C12.2317 29.2619 12.047 29.3125 11.8359 29.3125H3.70738C3.49625 29.3125 3.32911 29.2619 3.20595 29.1607C3.08279 29.0595 3.0388 28.9204 3.07399 28.7433L7.40215 3.3192C7.43734 3.14211 7.53411 3.00298 7.69245 2.90179C7.8508 2.8006 8.03554 2.75 8.24667 2.75H19.806ZM16.164 13.9442C16.9382 13.9442 17.598 13.7355 18.1434 13.3181C18.6888 12.9007 19.0319 12.2746 19.1726 11.4397C19.2078 11.2879 19.2254 11.0729 19.2254 10.7946C19.2254 10.1622 19.0319 9.68155 18.6448 9.35268C18.2577 9.02381 17.7299 8.85938 17.0613 8.85938H16.3752C16.164 8.85938 16.0585 8.93527 16.0585 9.08705L15.2667 13.7165C15.2315 13.8683 15.3195 13.9442 15.5306 13.9442H16.164Z" fill="#7CB68D"/>
</g>
<defs>
<clipPath id="clip0_3_20">
<rect width="25.875" height="26.5625" fill="white" transform="translate(3.0625 2.75)"/>
</clipPath>
</defs>
</svg>
